<svg xmlns="http://www.w3.org/2000/svg" width="120" height="120" viewBox="176 205 174 171" fill="#1a1a1a">
  <!-- Main connected piece (top-left + bottom-right blocks) -->
  <path transform="matrix(1,0,0,-1,347.1165,324.22068)" d="M0 0V-39.637C0-44.881-4.259-49.14-9.503-49.14H-49.14C-54.411-49.14-58.696-44.881-58.696-39.637V-19.033C-58.696-13.762-62.929-9.477-68.2-9.477H-96.017V3.301C-96.017 15.227-105.68 24.889-117.579 24.889H-134.935V46.904C-134.935 52.148-139.167 56.434-144.438 56.434H-158.573C-163.817 56.434-168.076 60.693-168.076 65.964V105.6C-168.076 110.844-163.817 115.13-158.573 115.13H-118.937C-113.666 115.13-109.38 110.844-109.38 105.6V95.298C-109.38 90.028-105.121 85.795-99.877 85.795H-72.991V63.807C-72.991 51.882-63.328 42.219-51.402 42.219H-39.663V19.06C-39.663 13.816-35.377 9.557-30.107 9.557H-9.503C-4.259 9.557 0 5.271 0 0" />
  <!-- Top-right small block -->
  <path transform="matrix(1,0,0,-1,347.1165,218.08817)" d="M0 0V-40.009C0-40.329-.026-40.648-.053-40.968-.399-45.599-4.099-49.273-8.704-49.619-9.024-49.672-9.37-49.699-9.69-49.699H-49.113C-54.464-49.699-58.803-45.36-58.803-40.009V0C-58.803 5.351-54.464 9.69-49.113 9.69H-9.69C-4.339 9.69 0 5.351 0 0" />
  <!-- Bottom-left small block -->
  <path transform="matrix(1,0,0,-1,237.843,323.68827)" d="M0 0V-39.983C0-42.032-.639-43.922-1.757-45.493-1.943-45.812-2.183-46.105-2.449-46.398-3.035-47.09-3.7-47.649-4.446-48.128-4.738-48.315-5.058-48.474-5.377-48.634-6.682-49.326-8.146-49.672-9.716-49.672H-49.113C-49.805-49.672-50.418-49.619-51.083-49.459-54.57-48.847-57.419-46.265-58.35-42.858-58.457-42.565-58.537-42.245-58.59-41.953-58.75-41.287-58.803-40.622-58.803-39.983V0C-58.803 5.351-54.464 9.716-49.113 9.716H-9.716C-4.339 9.716 0 5.351 0 0" />
</svg>
